<?xml version="1.0" standalone="no"?>
<!DOCTYPE svg PUBLIC "-//W3C//DTD SVG 20010904//EN"
 "http://www.w3.org/TR/2001/REC-SVG-20010904/DTD/svg10.dtd">
<svg version="1.0" xmlns="http://www.w3.org/2000/svg"
 width="48.000000pt" height="48.000000pt" viewBox="0 0 48.000000 48.000000"
 preserveAspectRatio="xMidYMid meet">
<metadata>
Created by potrace 1.10, written by Peter Selinger 2001-2011
</metadata>
<g transform="translate(0.000000,48.000000) scale(0.100000,-0.100000)"
fill="#ffffff" stroke="none">
<path d="M155 381 c-46 -21 -99 -70 -121 -112 -13 -26 -13 -32 0 -58 39 -74
127 -131 206 -131 79 0 167 57 206 131 13 26 13 32 0 58 -56 107 -189 159
-291 112z m165 -43 c24 -13 57 -40 73 -60 l30 -37 -34 -42 c-37 -47 -97 -78
-149 -79 -48 0 -117 37 -153 82 l-30 37 34 42 c60 76 148 98 229 57z"/>
<path d="M185 295 c-50 -49 -15 -135 55 -135 19 0 40 9 55 25 50 49 15 135
-55 135 -19 0 -40 -9 -55 -25z m85 -30 c26 -32 -13 -81 -47 -59 -23 14 -28 41
-13 59 16 19 44 19 60 0z"/>
</g>
</svg>
