<?xml version="1.0" standalone="no"?>
<!DOCTYPE svg PUBLIC "-//W3C//DTD SVG 20010904//EN"
 "http://www.w3.org/TR/2001/REC-SVG-20010904/DTD/svg10.dtd">
<svg version="1.0" xmlns="http://www.w3.org/2000/svg"
 width="50.000000pt" height="50.000000pt" viewBox="0 0 50.000000 50.000000"
 preserveAspectRatio="xMidYMid meet">
<metadata>
Created by potrace 1.10, written by Peter Selinger 2001-2011
</metadata>
<g transform="translate(0.000000,50.000000) scale(0.100000,-0.100000)"
fill="#ffffff" stroke="none">
<path d="M170 457 c-51 -27 -90 -90 -90 -146 0 -45 38 -128 74 -160 19 -18 26
-34 26 -62 0 -32 5 -40 32 -53 34 -18 68 -21 68 -7 0 5 9 11 20 14 16 4 20 14
20 44 0 30 6 45 26 64 36 32 74 115 74 160 0 86 -83 169 -170 169 -20 0 -56
-10 -80 -23z m148 -16 c40 -20 82 -83 82 -121 0 -43 -23 -100 -57 -140 -33
-38 -37 -40 -93 -40 -56 0 -60 2 -93 40 -34 40 -57 98 -57 141 2 65 80 139
148 139 18 0 50 -9 70 -19z m-18 -351 c0 -29 -1 -30 -50 -30 -49 0 -50 1 -50
30 0 29 1 30 50 30 49 0 50 -1 50 -30z"/>
</g>
</svg>
